<mxfile host="app.diagrams.net" modified="2024-05-15T07:46:04.854Z" agent="Mozilla/5.0 (Windows NT 10.0; Win64; x64) AppleWebKit/537.36 (KHTML, like Gecko) Chrome/124.0.0.0 Safari/537.36" etag="6Rupp-7CJf0A91tk3mbX" version="24.4.0" type="device">
  <diagram name="Page-1" id="u3bvJD8fNad5NtoMoOyE">
    <mxGraphModel dx="1530" dy="4162" grid="1" gridSize="10" guides="1" tooltips="1" connect="1" arrows="1" fold="1" page="1" pageScale="1" pageWidth="827" pageHeight="1169" math="0" shadow="0">
      <root>
        <mxCell id="0" />
        <mxCell id="1" parent="0" />
        <mxCell id="hUwiX2uFehCP2fWLo453-62" value="&lt;font style=&quot;font-size: 18px;&quot;&gt;&lt;b&gt;&amp;nbsp; &amp;nbsp; &amp;nbsp; Pendant vrai&lt;/b&gt;&lt;/font&gt;" style="html=1;blockSpacing=1;whiteSpace=wrap;shape=mxgraph.sysml.package2;xSize=90;overflow=fill;fontSize=13;align=left;spacing=0;strokeColor=#000000;rounded=1;absoluteArcSize=1;arcSize=12;fillColor=#FFFFFF;strokeWidth=NaN;container=1;pointerEvents=0;collapsible=0;recursiveResize=0;lucidId=k_rBJixSzbp9;labelX=167.27;" parent="1" vertex="1">
          <mxGeometry x="430.5" y="-2180" width="1360" height="1460" as="geometry" />
        </mxCell>
        <mxCell id="hUwiX2uFehCP2fWLo453-121" value="&lt;div style=&quot;display: flex; justify-content: center; text-align: center; align-items: baseline; font-size: 0; line-height: 1.25;margin-top: -2px;&quot;&gt;&lt;span&gt;&lt;span style=&quot;font-size:20px;font-weight: bold;&quot;&gt;Le joueur gagne du points&lt;/span&gt;&lt;/span&gt;&lt;/div&gt;" style="rounded=1;arcSize=20;whiteSpace=wrap;overflow=block;blockSpacing=1;html=1;fontSize=13;spacing=0;strokeColor=#unset;fillColor=#D5E8D4;strokeWidth=NaN;" parent="hUwiX2uFehCP2fWLo453-62" vertex="1">
          <mxGeometry x="679.5" y="1330" width="285" height="60" as="geometry" />
        </mxCell>
        <mxCell id="hUwiX2uFehCP2fWLo453-103" value="&lt;div style=&quot;display: flex; justify-content: center; text-align: center; align-items: baseline; font-size: 0; line-height: 1.25;margin-top: -2px;&quot;&gt;&lt;span&gt;&lt;span style=&quot;font-size:16.7px;font-weight: bold;&quot;&gt;Le personnage entre en collision avec un jeton&lt;/span&gt;&lt;/span&gt;&lt;/div&gt;" style="rounded=1;arcSize=20;whiteSpace=wrap;overflow=block;blockSpacing=1;html=1;fontSize=13;spacing=0;strokeColor=#unset;fillColor=#D5E8D4;strokeWidth=NaN;" parent="hUwiX2uFehCP2fWLo453-62" vertex="1">
          <mxGeometry x="672" y="1205" width="300" height="60" as="geometry" />
        </mxCell>
        <mxCell id="hUwiX2uFehCP2fWLo453-123" value="" style="endArrow=classic;html=1;rounded=0;exitX=0.5;exitY=1;exitDx=0;exitDy=0;" parent="hUwiX2uFehCP2fWLo453-62" source="hUwiX2uFehCP2fWLo453-103" target="hUwiX2uFehCP2fWLo453-121" edge="1">
          <mxGeometry width="50" height="50" relative="1" as="geometry">
            <mxPoint x="859.5" y="1145" as="sourcePoint" />
            <mxPoint x="984.7241379310349" y="1550.0000000000005" as="targetPoint" />
          </mxGeometry>
        </mxCell>
        <mxCell id="hUwiX2uFehCP2fWLo453-104" value="&lt;div style=&quot;display: flex; justify-content: center; text-align: center; align-items: baseline; font-size: 0; line-height: 1.25;margin-top: -2px;&quot;&gt;&lt;span&gt;&lt;span style=&quot;font-size:16.7px;font-weight: bold;&quot;&gt;Le personnage entre en collision avec un objet en mouvement&lt;/span&gt;&lt;/span&gt;&lt;/div&gt;" style="rounded=1;arcSize=20;whiteSpace=wrap;overflow=block;blockSpacing=1;html=1;fontSize=13;spacing=0;strokeColor=#unset;fillColor=#D5E8D4;strokeWidth=NaN;" parent="hUwiX2uFehCP2fWLo453-62" vertex="1">
          <mxGeometry x="1059.5" y="1205" width="285" height="60" as="geometry" />
        </mxCell>
        <mxCell id="hUwiX2uFehCP2fWLo453-63" value="" style="html=1;overflow=block;blockSpacing=1;whiteSpace=wrap;ellipse;fillColor=#000000;fontSize=13;spacing=0;strokeColor=#unset;rounded=1;absoluteArcSize=1;arcSize=12;strokeWidth=NaN;lucidId=W3rBS4H1_mv5;" parent="1" vertex="1">
          <mxGeometry x="1093.75" y="-2550" width="30" height="30" as="geometry" />
        </mxCell>
        <mxCell id="hUwiX2uFehCP2fWLo453-64" value="" style="html=1;jettySize=18;whiteSpace=wrap;fontSize=13;strokeColor=#333333;strokeOpacity=100;strokeWidth=0.8;rounded=1;arcSize=24;edgeStyle=orthogonalEdgeStyle;startArrow=none;endArrow=block;endFill=1;exitX=0.5;exitY=1.013;exitPerimeter=0;entryX=0.5;entryY=0;lucidId=u4rB_pHtY7gc;entryDx=0;entryDy=0;" parent="1" source="hUwiX2uFehCP2fWLo453-63" target="yl16qqWpES8gL8yZ1om1-6" edge="1">
          <mxGeometry width="100" height="100" relative="1" as="geometry">
            <Array as="points" />
          </mxGeometry>
        </mxCell>
        <mxCell id="hUwiX2uFehCP2fWLo453-65" value="&lt;div style=&quot;display: flex; justify-content: center; text-align: center; align-items: baseline; font-size: 0; line-height: 1.25;margin-top: -2px;&quot;&gt;&lt;span&gt;&lt;span style=&quot;font-size:20.2px;font-weight: bold;&quot;&gt;L&#39;utilisateur sÃ©lectionne l&#39;option &quot;Jouer&quot;&lt;/span&gt;&lt;/span&gt;&lt;/div&gt;" style="rounded=1;arcSize=20;whiteSpace=wrap;overflow=block;blockSpacing=1;html=1;fontSize=13;spacing=0;strokeColor=#unset;fillColor=#D5E8D4;strokeWidth=NaN;" parent="1" vertex="1">
          <mxGeometry x="901.75" y="-2290" width="417.5" height="50" as="geometry" />
        </mxCell>
        <mxCell id="hUwiX2uFehCP2fWLo453-66" value="" style="html=1;jettySize=18;whiteSpace=wrap;fontSize=13;strokeColor=#333333;strokeOpacity=100;strokeWidth=0.8;rounded=1;arcSize=24;edgeStyle=orthogonalEdgeStyle;startArrow=none;endArrow=block;endFill=1;exitX=0.5;exitY=1.006;exitPerimeter=0;entryX=0.5;entryY=-0.006;entryPerimeter=0;lucidId=.5rBJ7uo6Cg2;" parent="1" source="hUwiX2uFehCP2fWLo453-65" target="hUwiX2uFehCP2fWLo453-67" edge="1">
          <mxGeometry width="100" height="100" relative="1" as="geometry">
            <Array as="points" />
          </mxGeometry>
        </mxCell>
        <mxCell id="hUwiX2uFehCP2fWLo453-67" value="&lt;div style=&quot;display: flex; justify-content: center; text-align: center; align-items: baseline; font-size: 0; line-height: 1.25;margin-top: -2px;&quot;&gt;&lt;span&gt;&lt;span style=&quot;font-size:20px;font-weight: bold;&quot;&gt;Le jeu s&#39;initialise&lt;/span&gt;&lt;/span&gt;&lt;/div&gt;" style="rounded=1;arcSize=20;whiteSpace=wrap;overflow=block;blockSpacing=1;html=1;fontSize=13;spacing=0;strokeColor=#unset;fillColor=#D5E8D4;strokeWidth=NaN;" parent="1" vertex="1">
          <mxGeometry x="1020" y="-2130" width="180" height="60" as="geometry" />
        </mxCell>
        <mxCell id="hUwiX2uFehCP2fWLo453-68" value="" style="html=1;overflow=block;blockSpacing=1;whiteSpace=wrap;shape=rhombus;fontSize=13;spacing=0;strokeColor=#unset;rounded=1;absoluteArcSize=1;arcSize=12;fillColor=#unset;strokeWidth=NaN;lucidId=DosBEMwZ-rxY;" parent="1" vertex="1">
          <mxGeometry x="1095" y="-1695" width="30" height="30" as="geometry" />
        </mxCell>
        <mxCell id="hUwiX2uFehCP2fWLo453-69" value="" style="html=1;jettySize=18;whiteSpace=wrap;fontSize=13;strokeColor=#333333;strokeOpacity=100;strokeWidth=0.8;rounded=1;arcSize=24;edgeStyle=orthogonalEdgeStyle;startArrow=none;endArrow=block;endFill=1;exitX=0.93;exitY=0.5;exitPerimeter=0;entryX=-0.001;entryY=0.5;entryPerimeter=0;lucidId=PosB.Vd0wte.;" parent="1" source="hUwiX2uFehCP2fWLo453-68" target="hUwiX2uFehCP2fWLo453-84" edge="1">
          <mxGeometry width="100" height="100" relative="1" as="geometry">
            <Array as="points" />
          </mxGeometry>
        </mxCell>
        <mxCell id="hUwiX2uFehCP2fWLo453-70" value="" style="html=1;jettySize=18;whiteSpace=wrap;fontSize=13;strokeColor=#333333;strokeOpacity=100;strokeWidth=0.8;rounded=1;arcSize=24;edgeStyle=orthogonalEdgeStyle;startArrow=none;endArrow=block;endFill=1;exitX=0.07;exitY=0.5;exitPerimeter=0;entryX=1.001;entryY=0.5;entryPerimeter=0;lucidId=ZosBbGOC3yGN;" parent="1" source="hUwiX2uFehCP2fWLo453-68" target="hUwiX2uFehCP2fWLo453-85" edge="1">
          <mxGeometry width="100" height="100" relative="1" as="geometry">
            <Array as="points" />
          </mxGeometry>
        </mxCell>
        <mxCell id="hUwiX2uFehCP2fWLo453-71" value="" style="html=1;jettySize=18;whiteSpace=wrap;fontSize=13;strokeColor=#333333;strokeOpacity=100;strokeWidth=0.8;rounded=1;arcSize=24;edgeStyle=orthogonalEdgeStyle;startArrow=none;endArrow=block;endFill=1;exitX=0.5;exitY=1.006;exitPerimeter=0;entryX=0.5;entryY=0.07;entryPerimeter=0;lucidId=QpsBFZJmyccc;" parent="1" source="hUwiX2uFehCP2fWLo453-85" target="hUwiX2uFehCP2fWLo453-73" edge="1">
          <mxGeometry width="100" height="100" relative="1" as="geometry">
            <Array as="points" />
          </mxGeometry>
        </mxCell>
        <mxCell id="hUwiX2uFehCP2fWLo453-72" value="" style="html=1;jettySize=18;whiteSpace=wrap;fontSize=13;strokeColor=#333333;strokeOpacity=100;strokeWidth=0.8;rounded=1;arcSize=24;edgeStyle=orthogonalEdgeStyle;startArrow=none;endArrow=block;endFill=1;exitX=0.5;exitY=1.006;exitPerimeter=0;entryX=0.5;entryY=0.07;entryPerimeter=0;lucidId=3psBOGWyKWPc;" parent="1" source="hUwiX2uFehCP2fWLo453-84" target="hUwiX2uFehCP2fWLo453-74" edge="1">
          <mxGeometry width="100" height="100" relative="1" as="geometry">
            <Array as="points" />
          </mxGeometry>
        </mxCell>
        <mxCell id="hUwiX2uFehCP2fWLo453-73" value="" style="html=1;overflow=block;blockSpacing=1;whiteSpace=wrap;shape=rhombus;fontSize=13;spacing=0;strokeColor=#unset;rounded=1;absoluteArcSize=1;arcSize=12;fillColor=#unset;strokeWidth=NaN;lucidId=~psBepPjBAQu;" parent="1" vertex="1">
          <mxGeometry x="915" y="-1560" width="30" height="30" as="geometry" />
        </mxCell>
        <mxCell id="hUwiX2uFehCP2fWLo453-74" value="" style="html=1;overflow=block;blockSpacing=1;whiteSpace=wrap;shape=rhombus;fontSize=13;spacing=0;strokeColor=#unset;rounded=1;absoluteArcSize=1;arcSize=12;fillColor=#unset;strokeWidth=NaN;lucidId=jqsBAId216sT;" parent="1" vertex="1">
          <mxGeometry x="1275" y="-1560" width="30" height="30" as="geometry" />
        </mxCell>
        <mxCell id="hUwiX2uFehCP2fWLo453-75" value="&lt;div style=&quot;display: flex; justify-content: center; text-align: center; align-items: baseline; font-size: 0; line-height: 1.25;margin-top: -2px;&quot;&gt;&lt;span&gt;&lt;span style=&quot;font-size:20px;font-weight: bold;&quot;&gt;L&#39;utilisateur contrÃ´le le mouvement du personnage&lt;/span&gt;&lt;/span&gt;&lt;/div&gt;" style="rounded=1;arcSize=20;whiteSpace=wrap;overflow=block;blockSpacing=1;html=1;fontSize=13;spacing=0;strokeColor=#unset;fillColor=#D5E8D4;strokeWidth=NaN;" parent="1" vertex="1">
          <mxGeometry x="855" y="-2025" width="510" height="60" as="geometry" />
        </mxCell>
        <mxCell id="hUwiX2uFehCP2fWLo453-76" value="" style="html=1;jettySize=18;whiteSpace=wrap;fontSize=13;strokeColor=#333333;strokeOpacity=100;strokeWidth=0.8;rounded=1;arcSize=24;edgeStyle=orthogonalEdgeStyle;startArrow=none;endArrow=block;endFill=1;exitX=0.07;exitY=0.5;exitPerimeter=0;entryX=0.5;entryY=-0.006;entryPerimeter=0;lucidId=QssBmU0pkLQe;" parent="1" source="hUwiX2uFehCP2fWLo453-73" target="hUwiX2uFehCP2fWLo453-79" edge="1">
          <mxGeometry width="100" height="100" relative="1" as="geometry">
            <Array as="points" />
          </mxGeometry>
        </mxCell>
        <mxCell id="hUwiX2uFehCP2fWLo453-77" value="" style="html=1;jettySize=18;whiteSpace=wrap;fontSize=13;strokeColor=#333333;strokeOpacity=100;strokeWidth=0.8;rounded=1;arcSize=24;edgeStyle=orthogonalEdgeStyle;startArrow=none;endArrow=block;endFill=1;exitX=0.93;exitY=0.5;exitPerimeter=0;entryX=0.5;entryY=-0.006;entryPerimeter=0;lucidId=9ssBYLvC9PTT;" parent="1" source="hUwiX2uFehCP2fWLo453-74" target="hUwiX2uFehCP2fWLo453-83" edge="1">
          <mxGeometry width="100" height="100" relative="1" as="geometry">
            <Array as="points" />
          </mxGeometry>
        </mxCell>
        <mxCell id="hUwiX2uFehCP2fWLo453-78" value="" style="html=1;jettySize=18;whiteSpace=wrap;fontSize=13;strokeColor=#333333;strokeOpacity=100;strokeWidth=0.8;rounded=1;arcSize=24;edgeStyle=orthogonalEdgeStyle;startArrow=none;endArrow=block;endFill=1;exitX=0.07;exitY=0.5;exitPerimeter=0;entryX=0.5;entryY=-0.006;entryPerimeter=0;lucidId=ftsBXU7tBRb-;" parent="1" source="hUwiX2uFehCP2fWLo453-74" target="hUwiX2uFehCP2fWLo453-82" edge="1">
          <mxGeometry width="100" height="100" relative="1" as="geometry">
            <Array as="points" />
          </mxGeometry>
        </mxCell>
        <mxCell id="hUwiX2uFehCP2fWLo453-122" value="" style="edgeStyle=orthogonalEdgeStyle;rounded=0;orthogonalLoop=1;jettySize=auto;html=1;" parent="1" source="hUwiX2uFehCP2fWLo453-79" target="hUwiX2uFehCP2fWLo453-80" edge="1">
          <mxGeometry relative="1" as="geometry" />
        </mxCell>
        <mxCell id="hUwiX2uFehCP2fWLo453-79" value="&lt;div style=&quot;display: flex; justify-content: center; text-align: center; align-items: baseline; font-size: 0; line-height: 1.25;margin-top: -2px;&quot;&gt;&lt;span&gt;&lt;span style=&quot;font-size:16.8px;font-weight: bold;&quot;&gt;L&#39;utilisateur appuie sur le bouton bas&lt;/span&gt;&lt;/span&gt;&lt;/div&gt;" style="rounded=1;arcSize=20;whiteSpace=wrap;overflow=block;blockSpacing=1;html=1;fontSize=13;spacing=0;strokeColor=#unset;fillColor=#D5E8D4;strokeWidth=NaN;" parent="1" vertex="1">
          <mxGeometry x="645" y="-1470" width="210" height="60" as="geometry" />
        </mxCell>
        <mxCell id="hUwiX2uFehCP2fWLo453-80" value="&lt;div style=&quot;display: flex; justify-content: center; text-align: center; align-items: baseline; font-size: 0; line-height: 1.25;margin-top: -2px;&quot;&gt;&lt;span&gt;&lt;span style=&quot;font-size:16.8px;font-weight: bold;&quot;&gt;L&#39;utilisateur appuie sur le bouton haut&lt;/span&gt;&lt;/span&gt;&lt;/div&gt;" style="rounded=1;arcSize=20;whiteSpace=wrap;overflow=block;blockSpacing=1;html=1;fontSize=13;spacing=0;strokeColor=#unset;fillColor=#D5E8D4;strokeWidth=NaN;" parent="1" vertex="1">
          <mxGeometry x="900" y="-1470" width="195" height="60" as="geometry" />
        </mxCell>
        <mxCell id="hUwiX2uFehCP2fWLo453-81" value="" style="html=1;jettySize=18;whiteSpace=wrap;fontSize=13;strokeColor=#333333;strokeOpacity=100;strokeWidth=0.8;rounded=1;arcSize=24;edgeStyle=orthogonalEdgeStyle;startArrow=none;endArrow=block;endFill=1;exitX=0.93;exitY=0.5;exitPerimeter=0;entryX=0.5;entryY=-0.006;entryPerimeter=0;lucidId=3usB5B6wdBpD;" parent="1" source="hUwiX2uFehCP2fWLo453-73" target="hUwiX2uFehCP2fWLo453-80" edge="1">
          <mxGeometry width="100" height="100" relative="1" as="geometry">
            <Array as="points" />
          </mxGeometry>
        </mxCell>
        <mxCell id="hUwiX2uFehCP2fWLo453-82" value="&lt;div style=&quot;display: flex; justify-content: center; text-align: center; align-items: baseline; font-size: 0; line-height: 1.25;margin-top: -2px;&quot;&gt;&lt;span&gt;&lt;span style=&quot;font-size:16.7px;font-weight: bold;&quot;&gt;L&#39;utilisateur appuie sur le bouton gauche&lt;/span&gt;&lt;/span&gt;&lt;/div&gt;" style="rounded=1;arcSize=20;whiteSpace=wrap;overflow=block;blockSpacing=1;html=1;fontSize=13;spacing=0;strokeColor=#unset;fillColor=#D5E8D4;strokeWidth=NaN;" parent="1" vertex="1">
          <mxGeometry x="1125" y="-1470" width="225" height="60" as="geometry" />
        </mxCell>
        <mxCell id="hUwiX2uFehCP2fWLo453-83" value="&lt;div style=&quot;display: flex; justify-content: center; text-align: center; align-items: baseline; font-size: 0; line-height: 1.25;margin-top: -2px;&quot;&gt;&lt;span&gt;&lt;span style=&quot;font-size:16.7px;font-weight: bold;&quot;&gt;L&#39;utilisateur appuie sur le bouton droit&lt;/span&gt;&lt;/span&gt;&lt;/div&gt;" style="rounded=1;arcSize=20;whiteSpace=wrap;overflow=block;blockSpacing=1;html=1;fontSize=13;spacing=0;strokeColor=#unset;fillColor=#D5E8D4;strokeWidth=NaN;" parent="1" vertex="1">
          <mxGeometry x="1380" y="-1470" width="195" height="60" as="geometry" />
        </mxCell>
        <mxCell id="hUwiX2uFehCP2fWLo453-84" value="&lt;div style=&quot;display: flex; justify-content: center; text-align: center; align-items: baseline; font-size: 0; line-height: 1.25;margin-top: -2px;&quot;&gt;&lt;span&gt;&lt;span style=&quot;font-size:20px;font-weight: bold;&quot;&gt;Le personnage se dÃ©place sur l&#39;axe X&lt;/span&gt;&lt;/span&gt;&lt;/div&gt;" style="rounded=1;arcSize=20;whiteSpace=wrap;overflow=block;blockSpacing=1;html=1;fontSize=13;spacing=0;strokeColor=#unset;fillColor=#D5E8D4;strokeWidth=NaN;" parent="1" vertex="1">
          <mxGeometry x="1185" y="-1710" width="375" height="60" as="geometry" />
        </mxCell>
        <mxCell id="hUwiX2uFehCP2fWLo453-85" value="&lt;div style=&quot;display: flex; justify-content: center; text-align: center; align-items: baseline; font-size: 0; line-height: 1.25;margin-top: -2px;&quot;&gt;&lt;span&gt;&lt;span style=&quot;font-size:20px;font-weight: bold;&quot;&gt;Le personnage se dÃ©place sur l&#39;axe Y&lt;/span&gt;&lt;/span&gt;&lt;/div&gt;" style="rounded=1;arcSize=20;whiteSpace=wrap;overflow=block;blockSpacing=1;html=1;fontSize=13;spacing=0;strokeColor=#unset;fillColor=#D5E8D4;strokeWidth=NaN;" parent="1" vertex="1">
          <mxGeometry x="660" y="-1710" width="375" height="60" as="geometry" />
        </mxCell>
        <mxCell id="hUwiX2uFehCP2fWLo453-86" value="" style="html=1;overflow=block;blockSpacing=1;whiteSpace=wrap;fillColor=#000000;fontSize=13;spacing=0;strokeColor=#unset;rounded=1;absoluteArcSize=1;arcSize=12;strokeWidth=NaN;lucidId=kCsBBKgn5kEu;" parent="1" vertex="1">
          <mxGeometry x="1050" y="-1335" width="120" height="15" as="geometry" />
        </mxCell>
        <mxCell id="hUwiX2uFehCP2fWLo453-87" value="" style="html=1;jettySize=18;whiteSpace=wrap;fontSize=13;strokeColor=#333333;strokeOpacity=100;strokeWidth=0.8;rounded=1;arcSize=24;edgeStyle=orthogonalEdgeStyle;startArrow=none;endArrow=block;endFill=1;exitX=0.482;exitY=1.006;exitPerimeter=0;entryX=0.115;entryY=-0.025;entryPerimeter=0;lucidId=ECsBXF9H2Ag8;" parent="1" source="hUwiX2uFehCP2fWLo453-79" target="hUwiX2uFehCP2fWLo453-86" edge="1">
          <mxGeometry width="100" height="100" relative="1" as="geometry">
            <Array as="points" />
          </mxGeometry>
        </mxCell>
        <mxCell id="hUwiX2uFehCP2fWLo453-88" value="" style="html=1;jettySize=18;whiteSpace=wrap;fontSize=13;strokeColor=#333333;strokeOpacity=100;strokeWidth=0.8;rounded=1;arcSize=24;edgeStyle=orthogonalEdgeStyle;startArrow=none;endArrow=block;endFill=1;exitX=0.475;exitY=1.006;exitPerimeter=0;entryX=0.627;entryY=-0.025;entryPerimeter=0;lucidId=gDsBFdXp3CDR;" parent="1" source="hUwiX2uFehCP2fWLo453-82" target="hUwiX2uFehCP2fWLo453-86" edge="1">
          <mxGeometry width="100" height="100" relative="1" as="geometry">
            <Array as="points" />
          </mxGeometry>
        </mxCell>
        <mxCell id="hUwiX2uFehCP2fWLo453-89" value="" style="html=1;jettySize=18;whiteSpace=wrap;fontSize=13;strokeColor=#333333;strokeOpacity=100;strokeWidth=0.8;rounded=1;arcSize=24;edgeStyle=orthogonalEdgeStyle;startArrow=none;endArrow=block;endFill=1;exitX=0.5;exitY=1.006;exitPerimeter=0;entryX=0.371;entryY=-0.025;entryPerimeter=0;lucidId=ADsBtokxcrf~;" parent="1" source="hUwiX2uFehCP2fWLo453-80" target="hUwiX2uFehCP2fWLo453-86" edge="1">
          <mxGeometry width="100" height="100" relative="1" as="geometry">
            <Array as="points" />
          </mxGeometry>
        </mxCell>
        <mxCell id="hUwiX2uFehCP2fWLo453-90" value="" style="html=1;jettySize=18;whiteSpace=wrap;fontSize=13;strokeColor=#333333;strokeOpacity=100;strokeWidth=0.8;rounded=1;arcSize=24;edgeStyle=orthogonalEdgeStyle;startArrow=none;endArrow=block;endFill=1;exitX=0.5;exitY=1.006;exitPerimeter=0;entryX=0.883;entryY=-0.025;entryPerimeter=0;lucidId=SDsB~ScecgNf;" parent="1" source="hUwiX2uFehCP2fWLo453-83" target="hUwiX2uFehCP2fWLo453-86" edge="1">
          <mxGeometry width="100" height="100" relative="1" as="geometry">
            <Array as="points" />
          </mxGeometry>
        </mxCell>
        <mxCell id="hUwiX2uFehCP2fWLo453-91" value="" style="html=1;jettySize=18;whiteSpace=wrap;fontSize=13;strokeColor=#333333;strokeOpacity=100;strokeWidth=0.8;rounded=1;arcSize=24;edgeStyle=orthogonalEdgeStyle;startArrow=none;endArrow=block;endFill=1;exitX=0.5;exitY=1.025;exitPerimeter=0;entryX=0.5;entryY=-0.006;entryPerimeter=0;lucidId=nGsBOzKoA13c;" parent="1" source="hUwiX2uFehCP2fWLo453-86" target="hUwiX2uFehCP2fWLo453-92" edge="1">
          <mxGeometry width="100" height="100" relative="1" as="geometry">
            <Array as="points" />
          </mxGeometry>
        </mxCell>
        <mxCell id="hUwiX2uFehCP2fWLo453-92" value="&lt;div style=&quot;display: flex; justify-content: center; text-align: center; align-items: baseline; font-size: 0; line-height: 1.25;margin-top: -2px;&quot;&gt;&lt;span&gt;&lt;span style=&quot;font-size:20px;font-weight: bold;&quot;&gt;Le personnage se dÃ©place&lt;/span&gt;&lt;/span&gt;&lt;/div&gt;" style="rounded=1;arcSize=20;whiteSpace=wrap;overflow=block;blockSpacing=1;html=1;fontSize=13;spacing=0;strokeColor=#unset;fillColor=#D5E8D4;strokeWidth=NaN;" parent="1" vertex="1">
          <mxGeometry x="975" y="-1275" width="270" height="60" as="geometry" />
        </mxCell>
        <mxCell id="hUwiX2uFehCP2fWLo453-93" value="" style="html=1;jettySize=18;whiteSpace=wrap;fontSize=13;strokeColor=#333333;strokeOpacity=100;strokeWidth=0.8;rounded=1;arcSize=24;edgeStyle=orthogonalEdgeStyle;startArrow=none;endArrow=block;endFill=1;exitX=0.5;exitY=1.006;exitPerimeter=0;entryX=0.5;entryY=0.07;entryPerimeter=0;lucidId=AJsB98UaDgDc;" parent="1" source="hUwiX2uFehCP2fWLo453-75" target="hUwiX2uFehCP2fWLo453-118" edge="1">
          <mxGeometry width="100" height="100" relative="1" as="geometry">
            <Array as="points" />
          </mxGeometry>
        </mxCell>
        <mxCell id="hUwiX2uFehCP2fWLo453-94" value="" style="html=1;overflow=block;blockSpacing=1;whiteSpace=wrap;shape=rhombus;fontSize=13;spacing=0;strokeColor=#unset;rounded=1;absoluteArcSize=1;arcSize=12;fillColor=#unset;strokeWidth=NaN;lucidId=QJsB~Mvf_K6t;" parent="1" vertex="1">
          <mxGeometry x="1095" y="-1785" width="30" height="30" as="geometry" />
        </mxCell>
        <mxCell id="hUwiX2uFehCP2fWLo453-95" value="" style="html=1;jettySize=18;whiteSpace=wrap;fontSize=13;strokeColor=#333333;strokeOpacity=100;strokeWidth=0.8;rounded=1;arcSize=24;edgeStyle=orthogonalEdgeStyle;startArrow=none;endArrow=block;endFill=1;exitX=0.93;exitY=0.5;exitPerimeter=0;entryX=-0.002;entryY=0.5;entryPerimeter=0;lucidId=TKsB7qIio-In;" parent="1" source="hUwiX2uFehCP2fWLo453-94" target="hUwiX2uFehCP2fWLo453-96" edge="1">
          <mxGeometry width="100" height="100" relative="1" as="geometry">
            <Array as="points" />
          </mxGeometry>
        </mxCell>
        <mxCell id="hUwiX2uFehCP2fWLo453-96" value="&lt;div style=&quot;display: flex; justify-content: center; text-align: center; align-items: baseline; font-size: 0; line-height: 1.25;margin-top: -2px;&quot;&gt;&lt;span&gt;&lt;span style=&quot;font-size:16.7px;font-weight: bold;&quot;&gt;Pas de mouvement pendant longtemps&lt;/span&gt;&lt;/span&gt;&lt;/div&gt;" style="rounded=1;arcSize=20;whiteSpace=wrap;overflow=block;blockSpacing=1;html=1;fontSize=13;spacing=0;strokeColor=#unset;fillColor=#D5E8D4;strokeWidth=NaN;" parent="1" vertex="1">
          <mxGeometry x="1185" y="-1800" width="180" height="60" as="geometry" />
        </mxCell>
        <mxCell id="hUwiX2uFehCP2fWLo453-97" value="" style="html=1;jettySize=18;whiteSpace=wrap;fontSize=13;strokeColor=#333333;strokeOpacity=100;strokeWidth=0.8;rounded=1;arcSize=24;edgeStyle=orthogonalEdgeStyle;startArrow=none;endArrow=block;endFill=1;exitX=0.5;exitY=0.93;exitPerimeter=0;entryX=0.5;entryY=0.07;entryPerimeter=0;lucidId=fMsBGx-AlNwO;" parent="1" source="hUwiX2uFehCP2fWLo453-94" target="hUwiX2uFehCP2fWLo453-68" edge="1">
          <mxGeometry width="100" height="100" relative="1" as="geometry">
            <Array as="points" />
          </mxGeometry>
        </mxCell>
        <mxCell id="hUwiX2uFehCP2fWLo453-98" value="" style="html=1;jettySize=18;whiteSpace=wrap;fontSize=13;strokeColor=#333333;strokeOpacity=100;strokeWidth=0.8;rounded=1;arcSize=24;edgeStyle=orthogonalEdgeStyle;startArrow=none;endArrow=block;endFill=1;exitX=0.5;exitY=1.006;exitPerimeter=0;entryX=0.5;entryY=-0.006;entryPerimeter=0;lucidId=IOsBudwZlo4q;" parent="1" source="hUwiX2uFehCP2fWLo453-92" target="hUwiX2uFehCP2fWLo453-99" edge="1">
          <mxGeometry width="100" height="100" relative="1" as="geometry">
            <Array as="points" />
          </mxGeometry>
        </mxCell>
        <mxCell id="hUwiX2uFehCP2fWLo453-99" value="&lt;div style=&quot;display: flex; justify-content: center; text-align: center; align-items: baseline; font-size: 0; line-height: 1.25;margin-top: -2px;&quot;&gt;&lt;span&gt;&lt;span style=&quot;font-size:20px;font-weight: bold;&quot;&gt;VÃ©rification des collisions&lt;/span&gt;&lt;/span&gt;&lt;/div&gt;" style="rounded=1;arcSize=20;whiteSpace=wrap;overflow=block;blockSpacing=1;html=1;fontSize=13;spacing=0;strokeColor=#unset;fillColor=#D5E8D4;strokeWidth=NaN;" parent="1" vertex="1">
          <mxGeometry x="968" y="-1170" width="285" height="60" as="geometry" />
        </mxCell>
        <mxCell id="hUwiX2uFehCP2fWLo453-100" value="" style="html=1;jettySize=18;whiteSpace=wrap;fontSize=13;strokeColor=#333333;strokeOpacity=100;strokeWidth=0.8;rounded=1;arcSize=24;edgeStyle=orthogonalEdgeStyle;startArrow=none;endArrow=block;endFill=1;exitX=0.5;exitY=1.006;exitPerimeter=0;entryX=0.5;entryY=0.07;entryPerimeter=0;lucidId=RPsB.DqBu4HU;" parent="1" source="hUwiX2uFehCP2fWLo453-99" target="hUwiX2uFehCP2fWLo453-107" edge="1">
          <mxGeometry width="100" height="100" relative="1" as="geometry">
            <Array as="points" />
          </mxGeometry>
        </mxCell>
        <mxCell id="hUwiX2uFehCP2fWLo453-101" value="" style="html=1;jettySize=18;whiteSpace=wrap;fontSize=13;strokeColor=#333333;strokeOpacity=100;strokeWidth=0.8;rounded=1;arcSize=24;edgeStyle=orthogonalEdgeStyle;startArrow=none;endArrow=block;endFill=1;exitX=0.07;exitY=0.5;exitPerimeter=0;entryX=1.001;entryY=0.5;entryPerimeter=0;lucidId=9SsBn3F4OvCt;" parent="1" source="hUwiX2uFehCP2fWLo453-113" target="hUwiX2uFehCP2fWLo453-103" edge="1">
          <mxGeometry width="100" height="100" relative="1" as="geometry">
            <Array as="points" />
          </mxGeometry>
        </mxCell>
        <mxCell id="hUwiX2uFehCP2fWLo453-102" value="" style="html=1;jettySize=18;whiteSpace=wrap;fontSize=13;strokeColor=#333333;strokeOpacity=100;strokeWidth=0.8;rounded=1;arcSize=24;edgeStyle=orthogonalEdgeStyle;startArrow=none;endArrow=block;endFill=1;exitX=0.93;exitY=0.5;exitPerimeter=0;entryX=-0.001;entryY=0.5;entryPerimeter=0;lucidId=cTsB_KHp3KuT;" parent="1" source="hUwiX2uFehCP2fWLo453-113" target="hUwiX2uFehCP2fWLo453-104" edge="1">
          <mxGeometry width="100" height="100" relative="1" as="geometry">
            <Array as="points" />
          </mxGeometry>
        </mxCell>
        <mxCell id="hUwiX2uFehCP2fWLo453-105" value="" style="html=1;jettySize=18;whiteSpace=wrap;fontSize=13;strokeColor=#333333;strokeOpacity=100;strokeWidth=0.8;rounded=1;arcSize=24;edgeStyle=orthogonalEdgeStyle;startArrow=none;endArrow=block;endFill=1;exitX=1.001;exitY=0.5;exitPerimeter=0;lucidId=NUsBYRGds5pO;entryX=0.5;entryY=1;entryDx=0;entryDy=0;" parent="1" source="hUwiX2uFehCP2fWLo453-104" target="hUwiX2uFehCP2fWLo453-130" edge="1">
          <mxGeometry width="100" height="100" relative="1" as="geometry">
            <Array as="points" />
            <mxPoint x="1920" y="-945" as="targetPoint" />
          </mxGeometry>
        </mxCell>
        <mxCell id="hUwiX2uFehCP2fWLo453-106" value="" style="html=1;jettySize=18;whiteSpace=wrap;fontSize=13;strokeColor=#333333;strokeOpacity=100;strokeWidth=0.8;rounded=1;arcSize=24;edgeStyle=orthogonalEdgeStyle;startArrow=none;endArrow=block;endFill=1;exitX=1.002;exitY=0.352;exitPerimeter=0;lucidId=.UsB~1C9BO1D;entryX=0;entryY=0.5;entryDx=0;entryDy=0;" parent="1" source="hUwiX2uFehCP2fWLo453-96" target="hUwiX2uFehCP2fWLo453-130" edge="1">
          <mxGeometry width="100" height="100" relative="1" as="geometry">
            <Array as="points" />
            <mxPoint x="1920" y="-1779" as="targetPoint" />
          </mxGeometry>
        </mxCell>
        <mxCell id="hUwiX2uFehCP2fWLo453-107" value="" style="html=1;overflow=block;blockSpacing=1;whiteSpace=wrap;shape=rhombus;fontSize=13;spacing=0;strokeColor=#unset;rounded=1;absoluteArcSize=1;arcSize=12;fillColor=#unset;strokeWidth=NaN;lucidId=tWsBK-BfA9sL;" parent="1" vertex="1">
          <mxGeometry x="1095" y="-1065" width="30" height="30" as="geometry" />
        </mxCell>
        <mxCell id="hUwiX2uFehCP2fWLo453-108" value="" style="html=1;jettySize=18;whiteSpace=wrap;fontSize=13;strokeColor=#333333;strokeOpacity=100;strokeWidth=0.8;rounded=1;arcSize=24;edgeStyle=orthogonalEdgeStyle;startArrow=none;endArrow=block;endFill=1;exitX=0.928;exitY=0.475;exitPerimeter=0;entryX=-0.001;entryY=0.5;entryPerimeter=0;lucidId=DWsB3rbMhjrS;" parent="1" source="hUwiX2uFehCP2fWLo453-107" target="hUwiX2uFehCP2fWLo453-109" edge="1">
          <mxGeometry width="100" height="100" relative="1" as="geometry">
            <Array as="points" />
          </mxGeometry>
        </mxCell>
        <mxCell id="hUwiX2uFehCP2fWLo453-109" value="&lt;div style=&quot;display: flex; justify-content: center; text-align: center; align-items: baseline; font-size: 0; line-height: 1.25;margin-top: -2px;&quot;&gt;&lt;span&gt;&lt;span style=&quot;font-size:20px;font-weight: bold;&quot;&gt;Une collision s&#39;est produite&lt;/span&gt;&lt;/span&gt;&lt;/div&gt;" style="rounded=1;arcSize=20;whiteSpace=wrap;overflow=block;blockSpacing=1;html=1;fontSize=13;spacing=0;strokeColor=#unset;fillColor=#D5E8D4;strokeWidth=NaN;" parent="1" vertex="1">
          <mxGeometry x="1305" y="-1081" width="285" height="60" as="geometry" />
        </mxCell>
        <mxCell id="hUwiX2uFehCP2fWLo453-110" value="&lt;div style=&quot;display: flex; justify-content: center; text-align: center; align-items: baseline; font-size: 0; line-height: 1.25;margin-top: -2px;&quot;&gt;&lt;span&gt;&lt;span style=&quot;font-size:20px;font-weight: bold;&quot;&gt;Pas de collision&lt;/span&gt;&lt;/span&gt;&lt;/div&gt;" style="rounded=1;arcSize=20;whiteSpace=wrap;overflow=block;blockSpacing=1;html=1;fontSize=13;spacing=0;strokeColor=#unset;fillColor=#D5E8D4;strokeWidth=NaN;" parent="1" vertex="1">
          <mxGeometry x="615" y="-1081" width="300" height="60" as="geometry" />
        </mxCell>
        <mxCell id="hUwiX2uFehCP2fWLo453-111" value="" style="html=1;jettySize=18;whiteSpace=wrap;fontSize=13;strokeColor=#333333;strokeOpacity=100;strokeWidth=0.8;rounded=1;arcSize=24;edgeStyle=orthogonalEdgeStyle;startArrow=none;endArrow=block;endFill=1;exitX=0.078;exitY=0.553;exitPerimeter=0;entryX=1.001;entryY=0.539;entryPerimeter=0;lucidId=TXsBKViyNXGJ;" parent="1" source="hUwiX2uFehCP2fWLo453-107" target="hUwiX2uFehCP2fWLo453-110" edge="1">
          <mxGeometry width="100" height="100" relative="1" as="geometry">
            <Array as="points" />
          </mxGeometry>
        </mxCell>
        <mxCell id="hUwiX2uFehCP2fWLo453-112" value="" style="html=1;jettySize=18;whiteSpace=wrap;fontSize=13;strokeColor=#333333;strokeOpacity=100;strokeWidth=0.8;rounded=1;arcSize=24;edgeStyle=orthogonalEdgeStyle;startArrow=none;endArrow=block;endFill=1;exitX=0.5;exitY=1.006;exitPerimeter=0;entryX=0.5;entryY=0.07;entryPerimeter=0;lucidId=_XsBbFYhuOnh;" parent="1" source="hUwiX2uFehCP2fWLo453-109" target="hUwiX2uFehCP2fWLo453-113" edge="1">
          <mxGeometry width="100" height="100" relative="1" as="geometry">
            <Array as="points" />
          </mxGeometry>
        </mxCell>
        <mxCell id="hUwiX2uFehCP2fWLo453-113" value="" style="html=1;overflow=block;blockSpacing=1;whiteSpace=wrap;shape=rhombus;fontSize=13;spacing=0;strokeColor=#unset;rounded=1;absoluteArcSize=1;arcSize=12;fillColor=#unset;strokeWidth=NaN;lucidId=pYsBlKOXBGcX;" parent="1" vertex="1">
          <mxGeometry x="1433" y="-960" width="30" height="30" as="geometry" />
        </mxCell>
        <mxCell id="hUwiX2uFehCP2fWLo453-114" value="" style="html=1;jettySize=18;whiteSpace=wrap;fontSize=13;strokeColor=#333333;strokeOpacity=100;strokeWidth=0.8;rounded=1;arcSize=24;edgeStyle=orthogonalEdgeStyle;startArrow=none;endArrow=block;endFill=1;exitX=-0.001;exitY=0.5;exitPerimeter=0;entryX=-0.001;entryY=0.5;entryPerimeter=0;lucidId=EZsB1aL9ame5;" parent="1" source="hUwiX2uFehCP2fWLo453-110" target="hUwiX2uFehCP2fWLo453-75" edge="1">
          <mxGeometry width="100" height="100" relative="1" as="geometry">
            <Array as="points" />
          </mxGeometry>
        </mxCell>
        <mxCell id="hUwiX2uFehCP2fWLo453-115" value="" style="html=1;jettySize=18;whiteSpace=wrap;fontSize=13;strokeColor=#333333;strokeOpacity=100;strokeWidth=0.8;rounded=1;arcSize=24;edgeStyle=orthogonalEdgeStyle;startArrow=none;endArrow=block;endFill=1;exitX=0.5;exitY=1.006;exitPerimeter=0;entryX=0.5;entryY=-0.006;entryPerimeter=0;lucidId=w2sB0_TcW~Lt;" parent="1" source="hUwiX2uFehCP2fWLo453-67" target="hUwiX2uFehCP2fWLo453-75" edge="1">
          <mxGeometry width="100" height="100" relative="1" as="geometry">
            <Array as="points" />
          </mxGeometry>
        </mxCell>
        <mxCell id="hUwiX2uFehCP2fWLo453-116" value="" style="html=1;jettySize=18;whiteSpace=wrap;fontSize=13;strokeColor=#333333;strokeOpacity=100;strokeWidth=0.8;rounded=1;arcSize=24;edgeStyle=orthogonalEdgeStyle;startArrow=none;endArrow=block;endFill=1;exitX=0.93;exitY=0.5;exitPerimeter=0;entryX=-0.003;entryY=0.5;entryPerimeter=0;lucidId=W3sBII1xbl4r;" parent="1" source="hUwiX2uFehCP2fWLo453-118" target="hUwiX2uFehCP2fWLo453-117" edge="1">
          <mxGeometry width="100" height="100" relative="1" as="geometry">
            <Array as="points" />
          </mxGeometry>
        </mxCell>
        <mxCell id="hUwiX2uFehCP2fWLo453-117" value="&lt;div style=&quot;display: flex; justify-content: center; text-align: center; align-items: baseline; font-size: 0; line-height: 1.25;margin-top: -2px;&quot;&gt;&lt;span&gt;&lt;span style=&quot;font-size:20px;font-weight: bold;&quot;&gt;Fin de la route&lt;/span&gt;&lt;/span&gt;&lt;/div&gt;" style="rounded=1;arcSize=20;whiteSpace=wrap;overflow=block;blockSpacing=1;html=1;fontSize=13;spacing=0;strokeColor=#unset;fillColor=#D5E8D4;strokeWidth=NaN;" parent="1" vertex="1">
          <mxGeometry x="1185" y="-1905" width="150" height="60" as="geometry" />
        </mxCell>
        <mxCell id="hUwiX2uFehCP2fWLo453-118" value="" style="html=1;overflow=block;blockSpacing=1;whiteSpace=wrap;shape=rhombus;fontSize=13;spacing=0;strokeColor=#unset;rounded=1;absoluteArcSize=1;arcSize=12;fillColor=#unset;strokeWidth=NaN;lucidId=K5sB.9d8NTGa;" parent="1" vertex="1">
          <mxGeometry x="1095" y="-1890" width="30" height="30" as="geometry" />
        </mxCell>
        <mxCell id="hUwiX2uFehCP2fWLo453-119" value="" style="html=1;jettySize=18;whiteSpace=wrap;fontSize=13;strokeColor=#333333;strokeOpacity=100;strokeWidth=0.8;rounded=1;arcSize=24;edgeStyle=orthogonalEdgeStyle;startArrow=none;endArrow=block;endFill=1;exitX=0.5;exitY=0.93;exitPerimeter=0;entryX=0.5;entryY=0.07;entryPerimeter=0;lucidId=45sBwdV2EC2h;" parent="1" source="hUwiX2uFehCP2fWLo453-118" target="hUwiX2uFehCP2fWLo453-94" edge="1">
          <mxGeometry width="100" height="100" relative="1" as="geometry">
            <Array as="points" />
          </mxGeometry>
        </mxCell>
        <mxCell id="hUwiX2uFehCP2fWLo453-120" value="" style="html=1;jettySize=18;whiteSpace=wrap;fontSize=13;strokeColor=#333333;strokeOpacity=100;strokeWidth=0.8;rounded=1;arcSize=24;edgeStyle=orthogonalEdgeStyle;startArrow=none;endArrow=block;endFill=1;exitX=1.003;exitY=0.5;exitPerimeter=0;lucidId=s6sBPif7yio4;entryX=0.5;entryY=0;entryDx=0;entryDy=0;" parent="1" source="hUwiX2uFehCP2fWLo453-117" target="hUwiX2uFehCP2fWLo453-130" edge="1">
          <mxGeometry width="100" height="100" relative="1" as="geometry">
            <Array as="points" />
            <mxPoint x="1920" y="-1875" as="targetPoint" />
          </mxGeometry>
        </mxCell>
        <mxCell id="hUwiX2uFehCP2fWLo453-137" value="" style="edgeStyle=orthogonalEdgeStyle;rounded=0;orthogonalLoop=1;jettySize=auto;html=1;" parent="1" source="hUwiX2uFehCP2fWLo453-130" target="hUwiX2uFehCP2fWLo453-133" edge="1">
          <mxGeometry relative="1" as="geometry" />
        </mxCell>
        <mxCell id="hUwiX2uFehCP2fWLo453-138" value="" style="edgeStyle=orthogonalEdgeStyle;rounded=0;orthogonalLoop=1;jettySize=auto;html=1;" parent="1" source="hUwiX2uFehCP2fWLo453-130" target="hUwiX2uFehCP2fWLo453-133" edge="1">
          <mxGeometry relative="1" as="geometry" />
        </mxCell>
        <mxCell id="hUwiX2uFehCP2fWLo453-130" value="&lt;div style=&quot;display: flex; justify-content: center; text-align: center; align-items: baseline; line-height: 1.25; margin-top: -2px;&quot;&gt;&lt;span style=&quot;font-size: 20px;&quot;&gt;&lt;b&gt;Afficher le score&lt;/b&gt;&lt;/span&gt;&lt;br&gt;&lt;/div&gt;" style="rounded=1;arcSize=20;whiteSpace=wrap;overflow=block;blockSpacing=1;html=1;fontSize=13;spacing=0;strokeColor=#unset;fillColor=#D5E8D4;strokeWidth=NaN;" parent="1" vertex="1">
          <mxGeometry x="2000" y="-1440" width="180" height="60" as="geometry" />
        </mxCell>
        <mxCell id="hUwiX2uFehCP2fWLo453-133" value="" style="html=1;overflow=block;blockSpacing=1;whiteSpace=wrap;shape=rhombus;fontSize=13;spacing=0;strokeColor=#unset;rounded=1;absoluteArcSize=1;arcSize=30;fillColor=#unset;strokeWidth=NaN;lucidId=jqsBAId216sT;" parent="1" vertex="1">
          <mxGeometry x="2290" y="-1425" width="30" height="30" as="geometry" />
        </mxCell>
        <mxCell id="hUwiX2uFehCP2fWLo453-134" value="&lt;div style=&quot;display: flex; justify-content: center; text-align: center; align-items: baseline; line-height: 1.25; margin-top: -2px;&quot;&gt;&lt;span style=&quot;font-size: 20px;&quot;&gt;&lt;b&gt;Afficher le score&lt;/b&gt;&lt;/span&gt;&lt;br&gt;&lt;/div&gt;" style="rounded=1;arcSize=20;whiteSpace=wrap;overflow=block;blockSpacing=1;html=1;fontSize=13;spacing=0;strokeColor=#unset;fillColor=#D5E8D4;strokeWidth=NaN;" parent="1" vertex="1">
          <mxGeometry x="2215" y="-1790" width="180" height="60" as="geometry" />
        </mxCell>
        <mxCell id="hUwiX2uFehCP2fWLo453-135" value="" style="ellipse;html=1;shape=endState;fillColor=#000000;strokeColor=#ff0000;" parent="1" vertex="1">
          <mxGeometry x="2290" y="-1120" width="30" height="30" as="geometry" />
        </mxCell>
        <mxCell id="hUwiX2uFehCP2fWLo453-141" value="" style="edgeStyle=none;orthogonalLoop=1;jettySize=auto;html=1;rounded=0;entryX=0.5;entryY=0;entryDx=0;entryDy=0;" parent="1" target="hUwiX2uFehCP2fWLo453-135" edge="1">
          <mxGeometry width="80" relative="1" as="geometry">
            <mxPoint x="2305" y="-1410" as="sourcePoint" />
            <mxPoint x="2390" y="-1360" as="targetPoint" />
            <Array as="points" />
          </mxGeometry>
        </mxCell>
        <mxCell id="hUwiX2uFehCP2fWLo453-144" value="" style="endArrow=classic;html=1;rounded=0;exitX=0.5;exitY=0;exitDx=0;exitDy=0;entryX=0.5;entryY=1;entryDx=0;entryDy=0;" parent="1" source="hUwiX2uFehCP2fWLo453-133" target="hUwiX2uFehCP2fWLo453-134" edge="1">
          <mxGeometry width="50" height="50" relative="1" as="geometry">
            <mxPoint x="2160" y="-1480" as="sourcePoint" />
            <mxPoint x="2210" y="-1530" as="targetPoint" />
          </mxGeometry>
        </mxCell>
        <mxCell id="hUwiX2uFehCP2fWLo453-145" value="" style="endArrow=classic;html=1;rounded=0;exitX=0.5;exitY=0;exitDx=0;exitDy=0;entryX=1;entryY=0.5;entryDx=0;entryDy=0;" parent="1" source="hUwiX2uFehCP2fWLo453-134" target="hUwiX2uFehCP2fWLo453-65" edge="1">
          <mxGeometry width="50" height="50" relative="1" as="geometry">
            <mxPoint x="2160" y="-2030" as="sourcePoint" />
            <mxPoint x="2210" y="-2080" as="targetPoint" />
            <Array as="points">
              <mxPoint x="2305" y="-2250" />
            </Array>
          </mxGeometry>
        </mxCell>
        <mxCell id="hUwiX2uFehCP2fWLo453-146" value="" style="endArrow=classic;html=1;rounded=0;entryX=0;entryY=0.25;entryDx=0;entryDy=0;exitX=0;exitY=0.5;exitDx=0;exitDy=0;" parent="1" source="hUwiX2uFehCP2fWLo453-121" target="hUwiX2uFehCP2fWLo453-75" edge="1">
          <mxGeometry width="50" height="50" relative="1" as="geometry">
            <mxPoint x="960" y="-940" as="sourcePoint" />
            <mxPoint x="910" y="-890" as="targetPoint" />
            <Array as="points">
              <mxPoint x="470" y="-820" />
              <mxPoint x="470" y="-1480" />
              <mxPoint x="470" y="-1940" />
              <mxPoint x="470" y="-2010" />
            </Array>
          </mxGeometry>
        </mxCell>
        <mxCell id="hUwiX2uFehCP2fWLo453-151" value="" style="endArrow=classic;html=1;rounded=0;entryX=0.916;entryY=1.072;entryDx=0;entryDy=0;entryPerimeter=0;exitX=1;exitY=0.5;exitDx=0;exitDy=0;" parent="1" source="hUwiX2uFehCP2fWLo453-156" target="hUwiX2uFehCP2fWLo453-130" edge="1">
          <mxGeometry width="50" height="50" relative="1" as="geometry">
            <mxPoint x="2110" y="-840" as="sourcePoint" />
            <mxPoint x="2110" y="-840" as="targetPoint" />
            <Array as="points">
              <mxPoint x="2165" y="-840" />
            </Array>
          </mxGeometry>
        </mxCell>
        <mxCell id="hUwiX2uFehCP2fWLo453-152" value="" style="endArrow=classic;html=1;rounded=0;entryX=0;entryY=0.5;entryDx=0;entryDy=0;" parent="1" target="hUwiX2uFehCP2fWLo453-156" edge="1">
          <mxGeometry width="50" height="50" relative="1" as="geometry">
            <mxPoint x="1790" y="-840" as="sourcePoint" />
            <mxPoint x="1840" y="-840" as="targetPoint" />
          </mxGeometry>
        </mxCell>
        <mxCell id="hUwiX2uFehCP2fWLo453-156" value="&lt;div style=&quot;display: flex; justify-content: center; text-align: center; align-items: baseline; line-height: 1.25; margin-top: -2px;&quot;&gt;&lt;span style=&quot;font-size: 20px;&quot;&gt;&lt;b&gt;Faux: quitter&lt;/b&gt;&lt;/span&gt;&lt;/div&gt;" style="rounded=1;arcSize=20;whiteSpace=wrap;overflow=block;blockSpacing=1;html=1;fontSize=13;spacing=0;strokeColor=#unset;fillColor=#D5E8D4;strokeWidth=NaN;" parent="1" vertex="1">
          <mxGeometry x="1900" y="-870" width="180" height="60" as="geometry" />
        </mxCell>
        <mxCell id="hUwiX2uFehCP2fWLo453-157" value="&lt;font style=&quot;font-size: 24px;&quot;&gt;Rejouer&lt;/font&gt;" style="text;html=1;align=center;verticalAlign=middle;whiteSpace=wrap;rounded=0;" parent="1" vertex="1">
          <mxGeometry x="2320" y="-1590" width="95" height="30" as="geometry" />
        </mxCell>
        <mxCell id="hUwiX2uFehCP2fWLo453-159" value="&lt;font style=&quot;font-size: 24px;&quot;&gt;Quitter&lt;/font&gt;" style="text;html=1;align=center;verticalAlign=middle;whiteSpace=wrap;rounded=0;" parent="1" vertex="1">
          <mxGeometry x="2320" y="-1260" width="95" height="30" as="geometry" />
        </mxCell>
        <mxCell id="hUwiX2uFehCP2fWLo453-160" value="&lt;font style=&quot;font-size: 24px;&quot;&gt;Fin du jeu&lt;/font&gt;" style="text;html=1;align=center;verticalAlign=middle;whiteSpace=wrap;rounded=0;" parent="1" vertex="1">
          <mxGeometry x="2243.75" y="-1065" width="122.5" height="30" as="geometry" />
        </mxCell>
        <mxCell id="yl16qqWpES8gL8yZ1om1-6" value="&lt;div style=&quot;display: flex; justify-content: center; text-align: center; align-items: baseline; line-height: 1.25; margin-top: -2px;&quot;&gt;&lt;span style=&quot;font-size: 20.2px;&quot;&gt;&lt;b&gt;L&#39;utilisateur consulte le menu&lt;/b&gt;&lt;/span&gt;&lt;br&gt;&lt;/div&gt;" style="rounded=1;arcSize=20;whiteSpace=wrap;overflow=block;blockSpacing=1;html=1;fontSize=13;spacing=0;strokeColor=#unset;fillColor=#D5E8D4;strokeWidth=NaN;" parent="1" vertex="1">
          <mxGeometry x="955" y="-2480" width="307.5" height="50" as="geometry" />
        </mxCell>
        <mxCell id="yl16qqWpES8gL8yZ1om1-12" style="edgeStyle=orthogonalEdgeStyle;rounded=0;orthogonalLoop=1;jettySize=auto;html=1;exitX=0.5;exitY=1;exitDx=0;exitDy=0;entryX=0.5;entryY=0;entryDx=0;entryDy=0;" parent="1" source="yl16qqWpES8gL8yZ1om1-6" target="yl16qqWpES8gL8yZ1om1-10" edge="1">
          <mxGeometry relative="1" as="geometry" />
        </mxCell>
        <mxCell id="yl16qqWpES8gL8yZ1om1-10" value="" style="html=1;overflow=block;blockSpacing=1;whiteSpace=wrap;fillColor=#000000;fontSize=13;spacing=0;strokeColor=#unset;rounded=1;absoluteArcSize=1;arcSize=12;strokeWidth=NaN;lucidId=kCsBBKgn5kEu;" parent="1" vertex="1">
          <mxGeometry x="1048.75" y="-2390" width="120" height="15" as="geometry" />
        </mxCell>
        <mxCell id="yl16qqWpES8gL8yZ1om1-1" value="&lt;div style=&quot;display: flex; justify-content: center; text-align: center; align-items: baseline; line-height: 1.25; margin-top: -2px;&quot;&gt;&lt;span style=&quot;font-size: 20.2px;&quot;&gt;&lt;b&gt;L&#39;utilisateur peut contrÃ´ler les sons&lt;/b&gt;&lt;/span&gt;&lt;br&gt;&lt;/div&gt;" style="rounded=1;arcSize=20;whiteSpace=wrap;overflow=block;blockSpacing=1;html=1;fontSize=13;spacing=0;strokeColor=#unset;fillColor=#D5E8D4;strokeWidth=NaN;" parent="1" vertex="1">
          <mxGeometry x="645" y="-2370" width="365" height="50" as="geometry" />
        </mxCell>
        <mxCell id="yl16qqWpES8gL8yZ1om1-20" value="" style="endArrow=classic;html=1;rounded=0;exitX=0.25;exitY=1;exitDx=0;exitDy=0;" parent="1" source="yl16qqWpES8gL8yZ1om1-10" edge="1">
          <mxGeometry width="50" height="50" relative="1" as="geometry">
            <mxPoint x="1100" y="-2310" as="sourcePoint" />
            <mxPoint x="1010" y="-2345" as="targetPoint" />
          </mxGeometry>
        </mxCell>
        <mxCell id="yl16qqWpES8gL8yZ1om1-21" value="" style="endArrow=classic;html=1;rounded=0;entryX=0.5;entryY=0;entryDx=0;entryDy=0;" parent="1" target="hUwiX2uFehCP2fWLo453-65" edge="1">
          <mxGeometry width="50" height="50" relative="1" as="geometry">
            <mxPoint x="1111" y="-2382" as="sourcePoint" />
            <mxPoint x="930" y="-2290" as="targetPoint" />
          </mxGeometry>
        </mxCell>
        <mxCell id="h7VElmwruMbaevhEkuTl-1" value="&lt;div style=&quot;display: flex; justify-content: center; text-align: center; align-items: baseline; line-height: 1.25; margin-top: -2px;&quot;&gt;&lt;span style=&quot;font-size: 20.2px;&quot;&gt;&lt;b&gt;L&#39;utilisateur peut contrÃ´ler les sons&lt;/b&gt;&lt;/span&gt;&lt;br&gt;&lt;/div&gt;" style="rounded=1;arcSize=20;whiteSpace=wrap;overflow=block;blockSpacing=1;html=1;fontSize=13;spacing=0;strokeColor=#unset;fillColor=#D5E8D4;strokeWidth=NaN;" vertex="1" parent="1">
          <mxGeometry x="1200" y="-2375" width="360" height="50" as="geometry" />
        </mxCell>
        <mxCell id="h7VElmwruMbaevhEkuTl-5" value="" style="endArrow=classic;html=1;rounded=0;entryX=0;entryY=0.5;entryDx=0;entryDy=0;exitX=0.75;exitY=1;exitDx=0;exitDy=0;" edge="1" parent="1" source="yl16qqWpES8gL8yZ1om1-10" target="h7VElmwruMbaevhEkuTl-1">
          <mxGeometry width="50" height="50" relative="1" as="geometry">
            <mxPoint x="1089" y="-2365" as="sourcePoint" />
            <mxPoint x="1015" y="-2347" as="targetPoint" />
          </mxGeometry>
        </mxCell>
      </root>
    </mxGraphModel>
  </diagram>
</mxfile>
